<?xml version="1.0" standalone="no"?>
<!DOCTYPE svg PUBLIC "-//W3C//DTD SVG 20010904//EN"
 "http://www.w3.org/TR/2001/REC-SVG-20010904/DTD/svg10.dtd">
<svg version="1.0" xmlns="http://www.w3.org/2000/svg"
 width="1582.000000pt" height="1425.000000pt" viewBox="0 0 1582.000000 1425.000000"
 preserveAspectRatio="xMidYMid meet">

<g transform="translate(0.000000,1425.000000) scale(0.100000,-0.100000)"
fill="#000000" stroke="none">
<path d="M8371 12751 c-8 -5 -11 -16 -8 -25 7 -17 -8 -22 -18 -6 -8 13 -51 13
-76 -1 -15 -8 -24 -7 -36 3 -14 12 -16 10 -9 -14 5 -24 3 -28 -14 -28 -24 0
-37 -27 -21 -43 19 -19 12 -31 -7 -14 -23 21 -55 21 -107 1 -22 -9 -71 -24
-110 -34 -61 -16 -71 -16 -82 -3 -9 11 -15 12 -30 3 -21 -14 -72 2 -74 22 -1
7 -4 2 -8 -12 -5 -18 -14 -24 -28 -23 -28 3 -51 -23 -35 -39 18 -18 14 -31 -8
-25 -15 4 -20 1 -18 -10 4 -23 -21 -28 -29 -6 -3 10 -20 32 -36 48 -16 17 -36
45 -44 64 -12 29 -16 32 -28 20 -7 -8 -18 -39 -23 -69 -8 -43 -7 -61 4 -82 8
-16 11 -28 7 -28 -15 0 -73 46 -73 57 0 7 -14 20 -31 28 -34 18 -48 15 -24 -5
8 -7 15 -19 15 -26 0 -8 8 -14 18 -14 21 0 52 -29 52 -48 0 -17 -35 -15 -50 3
-18 22 -32 18 -25 -6 10 -32 -16 -19 -40 19 -27 43 -49 42 -42 0 3 -18 3 -27
0 -20 -8 21 -26 13 -20 -9 4 -15 0 -23 -14 -26 -10 -3 -19 -9 -19 -14 0 -5 -7
-9 -15 -9 -8 0 -15 6 -15 13 0 7 -10 18 -22 26 -19 12 -23 11 -38 -10 l-18
-22 -6 21 c-9 28 -24 28 -28 0 -4 -30 -71 -57 -99 -40 -25 16 -29 15 -29 -4 0
-11 5 -14 16 -10 28 11 11 -28 -19 -42 -21 -10 -27 -20 -27 -47 0 -19 5 -37
10 -40 18 -11 11 -25 -13 -25 -13 0 -29 -6 -36 -12 -10 -11 -12 -9 -9 7 2 13
-3 20 -12 20 -9 0 -14 -7 -12 -19 3 -13 -1 -17 -11 -13 -22 8 -100 -13 -115
-31 -9 -12 -15 -13 -24 -4 -22 22 -39 14 -32 -14 9 -35 -16 -28 -34 9 -14 29
-32 36 -32 13 0 -8 -14 -26 -31 -40 -21 -18 -26 -26 -14 -26 11 0 15 -7 13
-22 -4 -28 -35 -36 -41 -11 -3 15 -6 13 -15 -9 -6 -15 -20 -31 -30 -37 -11 -6
-22 -24 -25 -41 -5 -22 -12 -30 -27 -30 -17 0 -19 -3 -11 -18 18 -33 -29 -58
-57 -30 -15 15 -63 -8 -55 -27 9 -25 -27 -65 -58 -65 -20 0 -29 -5 -29 -16 0
-8 -4 -12 -10 -9 -15 9 -60 -25 -60 -46 0 -11 -7 -19 -15 -19 -8 0 -15 -5 -15
-11 0 -6 -9 -9 -20 -6 -15 4 -20 0 -20 -14 0 -14 -7 -19 -26 -19 -18 0 -25 -5
-23 -17 3 -33 -1 -37 -16 -17 -13 16 -16 17 -25 4 -5 -8 -10 -24 -10 -36 0
-31 -24 -75 -37 -69 -9 3 -13 -6 -13 -26 0 -26 -3 -30 -19 -26 -14 3 -18 -1
-18 -19 0 -13 3 -24 8 -24 5 0 9 -4 9 -10 0 -5 -9 -10 -20 -10 -14 0 -20 7
-20 22 0 20 -1 20 -18 5 -10 -10 -22 -17 -26 -17 -4 0 -26 -16 -49 -35 -22
-19 -49 -35 -59 -35 -10 0 -18 -6 -18 -14 0 -7 -7 -19 -15 -26 -8 -7 -15 -21
-15 -31 0 -15 -6 -17 -32 -14 l-33 4 30 -25 c27 -22 28 -26 13 -35 -10 -5 -18
-19 -18 -29 0 -23 -17 -25 -43 -6 -16 12 -21 11 -43 -11 -20 -20 -24 -31 -19
-54 4 -18 1 -41 -9 -60 -9 -18 -16 -36 -16 -40 0 -4 -5 -20 -12 -36 -6 -15
-10 -32 -9 -38 1 -5 -1 -35 -4 -67 -5 -41 -11 -58 -21 -58 -30 0 -56 -105 -35
-139 10 -15 3 -51 -10 -51 -5 0 -9 11 -9 25 0 14 -4 25 -9 25 -14 0 -22 -33
-19 -75 1 -22 -3 -40 -11 -45 -8 -4 -10 -13 -6 -20 7 -12 -32 -54 -58 -63 -9
-3 -8 -8 1 -20 20 -24 6 -39 -23 -25 -33 15 -45 2 -17 -18 26 -18 27 -32 6
-62 -12 -17 -19 -20 -29 -12 -11 9 -11 4 0 -27 10 -29 11 -63 5 -133 -6 -75
-5 -97 5 -106 11 -8 11 -12 -2 -20 -11 -6 -16 -25 -16 -54 1 -25 -4 -50 -9
-57 -5 -7 -7 -22 -3 -35 6 -19 5 -21 -6 -10 -28 27 -40 0 -17 -38 15 -23 4
-37 -16 -21 -17 15 -23 6 -24 -36 0 -17 -5 -41 -11 -52 -13 -24 -15 -98 -2
-103 4 -1 11 -13 15 -24 5 -17 3 -22 -11 -20 -10 0 -21 6 -25 11 -20 26 -5
-60 17 -101 29 -55 33 -99 8 -108 -14 -6 -12 -10 12 -24 26 -16 28 -23 30 -77
1 -33 5 -68 9 -78 6 -13 5 -16 -7 -11 -12 4 -14 1 -10 -15 3 -12 -2 -27 -11
-37 -18 -18 -14 -66 8 -93 8 -11 8 -15 -1 -18 -18 -6 -16 -68 2 -83 12 -10 13
-16 3 -27 -10 -12 -9 -17 5 -24 9 -6 17 -17 17 -24 0 -8 5 -15 11 -15 6 0 9
-6 6 -14 -3 -7 1 -23 9 -35 9 -12 11 -21 5 -21 -6 0 -11 -12 -11 -26 0 -18 6
-28 20 -31 15 -4 18 -9 10 -18 -7 -9 -7 -21 0 -39 5 -15 10 -50 10 -77 0 -35
4 -51 15 -55 8 -4 15 -12 15 -20 0 -18 37 -37 61 -31 10 3 19 1 19 -4 0 -21
29 -6 88 46 35 30 70 55 78 55 8 0 23 9 33 19 19 19 20 19 26 -10 6 -28 19
-37 29 -21 2 4 7 38 11 76 6 55 14 79 39 115 48 69 65 111 56 135 -4 12 -14
21 -23 21 -9 0 -25 10 -37 23 -26 28 -34 28 -19 1 17 -32 -4 -46 -30 -20 -29
29 -38 27 -51 -14 -10 -31 -16 -35 -46 -35 -30 0 -34 3 -34 28 0 15 7 50 16
77 30 95 33 116 18 122 -16 6 -19 33 -4 33 6 0 13 -1 16 -2 3 -2 12 13 20 32
11 26 12 41 5 58 -14 31 -14 32 8 32 15 0 26 17 45 68 36 93 33 152 -8 136
-14 -5 -16 0 -15 32 1 22 -1 46 -4 54 -9 21 8 44 27 37 11 -4 16 -20 17 -49
l1 -43 10 48 c8 38 7 52 -5 71 -13 19 -14 31 -5 62 6 22 20 48 30 60 10 11 18
26 18 32 0 7 12 18 26 24 22 10 25 17 20 43 -4 19 -1 38 7 49 13 17 14 17 30
1 16 -15 17 -15 17 8 0 14 3 27 8 29 4 2 15 18 25 36 19 37 23 87 6 77 -6 -4
-8 -13 -5 -21 3 -8 1 -14 -3 -14 -13 0 -22 28 -11 35 6 4 10 17 10 31 0 13 6
34 13 45 10 17 10 23 0 26 -7 3 -13 11 -13 19 0 14 39 94 46 94 3 0 9 -12 14
-26 18 -46 33 -17 26 50 -5 47 -3 67 8 81 10 13 13 34 10 60 -5 36 -4 38 9 23
18 -23 27 -13 27 28 0 18 4 35 9 38 5 3 12 20 15 38 6 30 75 118 93 118 11 1
55 49 78 85 10 17 38 50 61 75 60 63 77 87 109 150 37 73 143 197 251 295 48
44 112 103 141 130 82 78 114 100 175 123 31 12 79 37 106 57 27 19 54 35 59
35 6 0 21 8 34 18 13 11 37 22 53 26 17 4 42 16 57 27 15 10 41 22 58 25 17 4
36 13 42 20 6 8 24 14 39 14 15 0 33 7 40 15 7 8 19 15 27 15 7 0 46 15 86 34
40 18 90 41 112 51 22 9 50 22 61 27 26 12 135 14 302 5 86 -4 122 -3 122 5 0
7 14 8 43 3 23 -4 49 -7 57 -7 8 0 26 -4 40 -9 34 -12 161 -17 182 -7 9 4 19
4 22 -1 4 -5 39 -15 78 -21 40 -7 77 -18 83 -26 9 -11 104 -25 165 -22 57 2
75 -1 78 -11 5 -14 79 -15 87 -1 3 6 11 10 16 10 6 0 7 -4 4 -10 -4 -6 8 -10
29 -10 19 0 57 -4 83 -10 26 -5 62 -11 78 -14 17 -2 53 -12 80 -21 28 -10 55
-18 60 -20 6 -1 23 -7 38 -13 16 -7 32 -12 36 -12 5 0 14 -7 21 -15 7 -9 21
-13 35 -9 18 4 24 -1 35 -25 13 -33 20 -37 36 -21 13 13 74 -16 74 -36 0 -9 9
-13 29 -10 24 3 31 -1 36 -21 3 -13 3 -28 0 -33 -3 -6 1 -7 9 -4 9 3 13 10 10
15 -3 5 1 9 9 9 8 0 20 -13 26 -30 5 -16 15 -30 22 -30 6 0 31 -21 56 -47 32
-33 43 -52 39 -66 -3 -11 -1 -28 5 -38 7 -14 5 -23 -11 -39 -11 -11 -20 -24
-20 -29 0 -21 -21 -21 -28 0 -6 16 -4 27 10 41 15 15 17 22 7 34 -17 20 -28
17 -22 -7 4 -15 0 -22 -15 -25 -23 -6 -33 -55 -28 -136 1 -29 -2 -48 -8 -48
-8 0 -7 -3 0 -8 15 -9 12 -72 -3 -72 -7 0 -13 -20 -15 -52 -3 -46 -6 -53 -25
-56 -13 -2 -23 -8 -23 -13 0 -6 5 -7 10 -4 16 10 11 -31 -5 -45 -10 -9 -15 -9
-15 -1 0 6 -6 11 -12 11 -7 -1 0 -11 15 -24 26 -21 28 -27 23 -69 -4 -26 -2
-55 3 -65 14 -26 36 -115 33 -135 -2 -9 4 -24 12 -33 18 -17 22 -54 6 -54 -15
0 -12 -56 4 -69 7 -6 11 -22 8 -36 -3 -17 2 -31 15 -43 11 -9 28 -35 37 -57
34 -76 40 -85 46 -75 3 6 15 -2 27 -19 13 -16 35 -31 53 -35 18 -3 50 -24 72
-46 22 -22 44 -40 48 -40 15 0 19 -30 8 -55 -15 -34 -36 -36 -91 -6 -39 20
-53 23 -75 15 -15 -6 -46 -7 -70 -2 -34 6 -50 3 -77 -12 -28 -15 -36 -17 -42
-6 -12 21 -62 25 -101 9 -19 -8 -46 -13 -61 -11 -31 3 -52 -8 -46 -25 2 -7 -7
-25 -20 -42 -24 -28 -25 -29 -38 -11 -14 19 -15 19 -27 -3 -10 -20 -18 -22
-47 -18 -29 5 -36 3 -40 -13 -3 -11 -9 -20 -14 -20 -5 0 -9 -7 -9 -16 0 -8 -4
-13 -9 -9 -10 6 -91 -65 -91 -80 0 -4 -8 -15 -18 -24 -10 -9 -23 -32 -28 -51
-8 -26 -15 -34 -30 -32 -28 4 -38 7 -51 15 -24 15 -84 -4 -93 -29 -7 -17 -17
-24 -35 -24 -14 0 -34 -8 -44 -17 -10 -10 -38 -34 -60 -53 -23 -19 -49 -48
-57 -65 -20 -38 -54 -144 -54 -167 0 -11 -11 -20 -27 -24 -32 -8 -63 -32 -63
-49 0 -7 18 -25 41 -40 22 -16 44 -36 50 -46 14 -26 11 -76 -8 -135 -16 -51
-16 -57 5 -144 12 -49 22 -99 22 -110 0 -27 37 -132 49 -140 6 -3 13 -21 16
-39 3 -19 8 -38 11 -42 2 -4 0 -10 -5 -14 -13 -7 -7 -121 8 -158 9 -22 8 -29
-4 -33 -8 -4 -15 -11 -15 -18 0 -11 -38 -30 -136 -68 -40 -16 -56 -28 -70 -56
-11 -21 -23 -40 -27 -43 -5 -4 -14 -17 -20 -29 -14 -28 -59 -63 -84 -65 -33
-4 -52 -16 -46 -31 6 -17 -19 -19 -48 -3 -25 13 -53 -6 -46 -33 3 -10 0 -18
-8 -18 -16 0 -27 -117 -13 -145 6 -11 26 -33 44 -48 19 -16 34 -35 34 -43 0
-9 11 -14 30 -14 23 0 33 -6 42 -25 6 -14 15 -25 20 -25 4 0 8 -4 8 -10 0 -5
11 -34 25 -64 14 -30 25 -61 25 -70 0 -8 5 -18 10 -21 6 -4 16 -21 24 -39 7
-18 28 -46 45 -62 27 -25 30 -34 25 -62 -6 -29 -24 -46 -24 -22 0 6 -11 10
-24 10 -14 0 -28 -4 -31 -10 -11 -17 -45 -11 -45 8 0 15 -11 17 -112 14 -97
-3 -114 -7 -126 -23 -7 -10 -20 -19 -29 -19 -11 0 -14 -6 -9 -24 3 -14 2 -28
-4 -31 -5 -3 -10 -14 -10 -25 0 -18 -52 -45 -64 -33 -3 3 -3 -5 -1 -19 3 -16
-2 -27 -16 -36 -19 -12 -20 -11 -13 40 9 76 29 118 53 118 12 0 21 7 21 15 0
9 -6 12 -15 9 -8 -4 -21 -1 -29 5 -7 6 -35 13 -62 17 -27 3 -65 10 -84 15 -29
9 -46 6 -100 -14 -147 -55 -277 -112 -314 -136 -21 -14 -46 -30 -55 -36 -9 -5
-37 -24 -63 -42 -98 -67 -166 -87 -203 -59 -16 11 -17 18 -8 38 6 15 8 51 4
98 -4 41 -4 97 1 125 4 28 4 53 -2 59 -13 13 -40 -1 -40 -22 0 -11 -11 -31
-25 -46 -14 -15 -23 -32 -19 -37 10 -17 -5 -59 -21 -59 -9 0 -15 10 -16 23 0
15 -2 17 -6 7 -11 -28 -43 -40 -43 -16 0 7 -6 18 -13 25 -18 14 -37 -5 -37
-36 0 -27 -18 -30 -35 -6 -19 25 -45 0 -45 -43 0 -26 -3 -32 -15 -27 -9 3 -24
-2 -34 -11 -19 -18 -33 -12 -24 10 3 8 0 14 -6 14 -6 0 -11 -4 -11 -9 0 -5
-16 -32 -35 -60 -35 -51 -43 -67 -26 -57 5 4 11 1 13 -5 5 -14 48 6 61 27 4 8
14 14 21 14 8 0 27 15 43 33 21 24 38 34 59 34 30 0 30 -1 20 -31 -18 -50 -26
-59 -42 -45 -9 8 -14 8 -14 1 0 -6 7 -15 15 -19 12 -7 8 -17 -25 -53 -53 -58
-66 -120 -24 -120 17 0 18 -22 2 -38 -9 -9 -10 -15 -2 -20 7 -4 14 -16 17 -27
4 -19 5 -18 6 2 1 13 10 24 22 28 32 10 77 12 91 4 12 -8 61 13 89 37 19 17
118 44 160 44 40 0 67 15 109 59 41 44 93 64 215 83 80 12 102 12 195 -3 141
-23 350 -105 350 -138 0 -9 6 -11 18 -6 23 10 255 6 295 -6 17 -5 44 -9 58 -9
41 0 53 -22 29 -53 -22 -28 -26 -47 -8 -47 6 0 8 -3 4 -7 -4 -4 -17 -8 -29 -8
-15 0 -22 -6 -20 -18 0 -11 -9 -23 -23 -29 -13 -6 -24 -17 -24 -25 0 -7 -6
-13 -14 -13 -7 0 -19 -6 -26 -14 -6 -8 -19 -12 -27 -9 -13 5 -15 2 -11 -15 4
-12 2 -22 -3 -22 -5 0 -9 4 -9 9 0 6 -15 4 -33 -4 -37 -15 -127 -20 -222 -11
-139 13 -347 16 -361 5 -27 -23 -7 -92 25 -81 11 4 13 -2 8 -25 -3 -18 -1 -35
6 -43 9 -10 9 -14 0 -17 -7 -3 -13 -11 -13 -19 0 -8 -6 -11 -15 -8 -25 10 -17
-13 13 -35 15 -12 20 -20 12 -19 -11 2 -14 -5 -13 -29 2 -17 -2 -35 -7 -38 -6
-3 -10 -13 -10 -21 0 -8 -9 -24 -20 -36 -11 -12 -20 -25 -20 -29 0 -22 81 -65
173 -91 174 -50 175 -50 187 -77 10 -23 13 -24 24 -10 9 14 13 14 24 3 7 -8
30 -14 52 -14 21 0 42 -5 45 -10 4 -6 28 -9 57 -6 43 3 51 1 55 -15 3 -10 13
-19 23 -19 10 0 23 -7 30 -15 7 -8 21 -15 32 -15 11 0 18 -5 15 -12 -2 -7 0
-21 5 -31 11 -22 -19 -37 -33 -16 -8 11 -9 9 -7 -6 2 -13 -5 -23 -19 -30 -13
-5 -23 -17 -23 -25 -1 -12 -3 -12 -14 3 -19 24 -25 22 -42 -18 -8 -20 -19 -33
-23 -30 -5 3 -12 -1 -14 -7 -4 -10 -8 -9 -16 2 -8 12 -13 8 -26 -23 -16 -38
-32 -46 -53 -25 -20 20 -26 0 -8 -28 17 -25 17 -26 -3 -19 -12 3 -21 3 -21 -2
0 -9 -52 -43 -65 -43 -4 0 -4 11 -1 25 8 31 -11 33 -42 5 -12 -12 -22 -18 -22
-14 0 3 -6 1 -13 -5 -16 -13 -27 -5 -27 21 0 11 -4 17 -9 14 -5 -3 -11 3 -14
15 -4 16 -11 18 -31 13 -33 -8 -76 19 -77 49 0 20 -2 19 -11 -5 -10 -28 -31
-37 -43 -18 -10 17 -25 11 -25 -9 0 -28 -10 -51 -24 -51 -6 0 -24 -12 -39 -26
-25 -21 -27 -27 -15 -41 12 -15 11 -15 -8 -5 -12 6 -24 18 -28 27 -11 30 -36
17 -36 -20 0 -28 -4 -35 -20 -35 -13 0 -24 10 -31 27 l-10 27 -24 -29 -23 -30
-22 20 c-12 11 -26 29 -31 40 -6 16 -8 13 -8 -15 -1 -19 8 -49 18 -66 18 -30
18 -31 0 -42 -15 -9 -19 -8 -24 8 -7 23 -16 25 -33 8 -9 -9 -12 -7 -12 10 0
16 4 20 16 15 11 -4 15 -2 12 8 -7 21 -77 20 -89 -3 -18 -34 -37 -21 -44 32
-6 44 -9 49 -25 40 -21 -12 -35 -43 -21 -48 14 -5 14 -49 1 -57 -5 -3 -20 3
-32 15 -19 17 -20 24 -11 39 10 15 9 20 -3 25 -8 3 -19 17 -26 31 -13 30 -43
35 -33 6 3 -11 2 -22 -4 -25 -10 -7 9 -56 22 -56 4 0 7 -11 7 -25 0 -14 7 -28
15 -31 8 -4 15 -15 15 -25 0 -10 -7 -19 -15 -19 -9 0 -15 10 -15 26 0 14 -4
23 -10 19 -5 -3 -23 23 -40 59 -31 68 -37 96 -20 96 16 0 -7 38 -31 50 -15 9
-24 8 -35 -1 -18 -15 -2 -29 34 -29 27 0 29 -16 2 -25 -11 -3 -20 -10 -20 -15
0 -4 -7 -11 -16 -14 -8 -3 -12 -2 -9 4 7 12 -15 80 -26 80 -4 0 -9 -6 -12 -12
-2 -7 -8 -9 -13 -5 -5 5 -2 12 6 17 44 27 44 28 30 45 -7 8 -22 14 -34 13 -19
-3 -35 17 -60 77 -3 6 -9 4 -15 -5 -5 -8 -7 -18 -5 -22 10 -16 -9 -8 -21 9
-11 15 -13 15 -24 -6 -7 -12 -10 -29 -7 -36 3 -9 -3 -15 -17 -17 -17 -2 -21
-9 -19 -28 l3 -25 -18 22 c-24 30 -48 16 -39 -21 7 -29 -5 -34 -28 -11 -8 8
-26 15 -40 15 -20 0 -27 7 -34 33 -6 22 -15 33 -30 35 -12 2 -22 8 -22 13 0
14 -28 11 -34 -3 -3 -9 -9 -8 -20 5 -8 10 -23 17 -33 16 -75 -12 -143 71 -87
104 22 12 17 33 -11 45 -31 14 -32 28 -3 36 17 4 29 -2 48 -24 31 -36 40 -38
40 -6 0 13 7 29 16 37 34 28 72 133 52 145 -6 4 -15 -1 -20 -10 -8 -14 -13
-15 -24 -5 -16 13 -19 79 -3 79 7 0 8 11 4 30 -4 17 -2 36 4 43 11 14 4 57
-10 57 -5 0 -9 10 -9 23 -1 31 -37 74 -52 59 -6 -6 -24 -8 -39 -5 -29 5 -30 4
-33 -37 -1 -8 -11 -16 -24 -18 -18 -3 -26 5 -42 40 -17 35 -19 38 -15 13 3
-16 8 -38 11 -47 3 -10 -2 -19 -16 -23 -28 -9 -25 -29 10 -65 41 -42 41 -69 1
-41 -16 12 -34 21 -39 21 -15 0 -24 34 -16 63 5 22 3 25 -15 20 -12 -3 -21
-11 -21 -18 0 -7 -7 -18 -15 -25 -13 -11 -15 -8 -15 14 0 25 -24 46 -37 33 -3
-3 -8 -26 -10 -51 -4 -35 -1 -50 16 -72 32 -41 25 -58 -9 -22 -25 25 -30 37
-25 60 4 15 3 28 -2 28 -11 0 -34 83 -38 133 -3 54 -12 56 -33 6 l-19 -44 -17
37 c-12 25 -16 54 -14 94 3 60 1 62 -36 48 -16 -6 -18 -4 -13 17 4 17 -2 33
-19 54 -24 30 -25 30 -40 10 -15 -19 -15 -19 -9 6 3 14 7 32 8 40 2 8 6 20 11
27 4 7 3 19 -3 26 -6 8 -12 44 -13 80 -2 64 -3 67 -24 62 -19 -5 -24 0 -33 27
-20 63 -24 107 -11 122 7 9 10 27 7 44 -4 16 -2 43 2 59 8 26 6 31 -12 36 -34
9 -37 8 -48 -21 -11 -30 -27 -22 -34 18 -3 13 -14 36 -25 51 -11 16 -16 28
-10 28 5 0 10 4 10 10 0 5 -7 7 -15 4 -9 -4 -15 0 -15 9 0 9 -6 20 -12 24 -7
4 -18 18 -25 30 -10 18 -9 28 10 62 12 22 18 43 14 48 -5 4 -13 0 -18 -10 -19
-33 -27 -16 -34 71 -3 48 -12 110 -19 137 -31 115 -34 137 -24 178 12 55 18
201 8 217 -20 33 -48 -102 -41 -205 2 -27 0 -68 -13 -305 -3 -41 -7 -82 -11
-91 -3 -9 -2 -34 3 -56 9 -37 7 -43 -19 -68 -35 -33 -36 -49 -4 -80 29 -30 31
-39 21 -84 -8 -33 9 -77 80 -213 9 -17 11 -29 4 -33 -5 -3 -10 -15 -10 -27 0
-11 -8 -22 -20 -25 -22 -6 -26 -23 -9 -40 8 -8 3 -22 -20 -50 -22 -28 -30 -45
-25 -59 7 -18 7 -18 -13 -1 -18 16 -21 16 -33 2 -23 -27 -71 -58 -104 -65 -27
-7 -24 -8 22 -9 53 -1 118 24 184 70 14 11 38 19 52 19 25 0 26 -2 20 -35 -3
-19 -1 -56 4 -82 21 -93 22 -122 5 -138 -14 -15 -14 -17 3 -31 14 -11 16 -17
6 -21 -10 -4 -9 -9 4 -24 9 -10 23 -19 31 -19 9 0 13 -13 13 -41 0 -32 4 -42
20 -46 18 -5 30 -25 13 -21 -5 0 -19 -4 -33 -10 -23 -10 -23 -11 -4 -11 25 -1
39 -28 24 -46 -7 -9 -6 -16 6 -26 8 -7 14 -22 12 -34 -4 -16 0 -21 16 -21 18
1 21 -6 24 -44 1 -25 6 -52 9 -60 4 -8 8 -33 9 -55 3 -50 18 -129 34 -175 6
-19 11 -72 11 -117 -2 -80 -1 -83 29 -109 16 -15 30 -35 30 -45 0 -10 6 -22
14 -26 8 -4 15 -17 17 -27 6 -28 28 -31 37 -5 9 23 9 23 23 -6 9 -19 25 -32
47 -37 37 -10 44 -39 14 -60 -23 -16 -36 -48 -20 -48 6 0 20 -8 30 -17 19 -17
19 -16 13 10 -7 28 0 33 25 17 12 -8 13 -13 3 -28 -10 -17 -7 -24 18 -48 27
-25 32 -27 59 -17 21 8 32 8 37 1 3 -7 1 -8 -5 -4 -6 4 -19 -5 -28 -19 -13
-20 -14 -29 -5 -38 9 -9 14 -8 21 3 8 12 10 10 10 -7 0 -15 -6 -23 -17 -23
-11 0 -2 -13 27 -40 24 -22 47 -40 52 -40 4 0 8 -9 8 -21 0 -18 -4 -20 -25
-15 -14 4 -25 2 -25 -3 0 -14 14 -21 44 -23 17 -2 25 -7 22 -15 -3 -7 1 -19 9
-27 8 -8 15 -23 15 -34 0 -11 7 -22 15 -26 22 -8 18 -24 -7 -28 -22 -3 -21 -4
9 -22 17 -11 36 -30 42 -44 9 -18 17 -23 36 -20 13 3 22 2 20 -3 -3 -4 -1 -10
5 -14 15 -10 12 -35 -5 -35 -18 0 -17 3 -6 -37 7 -23 6 -33 -2 -36 -9 -3 -8
-8 2 -20 17 -21 28 -21 48 -1 15 14 17 14 26 -2 7 -13 7 -19 -1 -22 -20 -6
-13 -32 8 -32 17 0 19 -5 14 -24 -8 -34 26 -71 56 -61 28 9 50 -11 50 -45 0
-15 6 -30 13 -33 14 -5 104 7 113 16 3 3 20 -1 37 -8 27 -11 33 -11 43 3 11
14 14 14 40 -3 16 -10 37 -27 48 -37 11 -10 37 -23 57 -28 20 -6 40 -17 43
-25 3 -8 12 -15 21 -15 18 0 19 12 3 29 -11 10 -7 11 16 5 21 -5 27 -4 22 5
-4 6 -15 11 -24 11 -10 0 -23 9 -30 20 -11 18 -10 20 17 20 17 0 33 -4 36 -10
10 -16 45 -12 45 5 0 19 24 19 40 0 14 -17 40 -20 40 -5 0 6 -8 13 -17 17 -22
7 -63 43 -63 55 0 5 15 1 33 -8 34 -18 78 -60 70 -68 -9 -8 38 -28 53 -22 17
7 64 -15 83 -38 7 -8 30 -17 52 -21 37 -6 54 -23 27 -26 -7 -1 -24 -3 -38 -4
-14 -2 -29 2 -35 9 -16 21 -55 39 -55 26 0 -19 61 -64 112 -83 64 -25 63 -42
-3 -33 -28 4 -56 3 -62 -3 -7 -5 -23 -11 -37 -13 -22 -4 -23 -5 -6 -13 11 -5
33 -3 54 5 30 11 36 10 44 -3 6 -11 20 -15 46 -13 32 3 37 7 34 27 -4 22 -2
21 32 -9 21 -18 48 -32 62 -32 16 0 23 -4 18 -11 -3 -6 -22 -9 -40 -7 -23 3
-34 0 -34 -9 0 -17 -6 -16 -34 2 -12 8 -38 14 -57 13 -19 -1 -44 1 -56 6 -15
4 -23 3 -23 -3 0 -6 5 -11 12 -11 6 0 19 -7 29 -16 14 -12 15 -19 6 -28 -8
-10 -17 -6 -39 16 -27 28 -61 37 -73 18 -3 -5 -17 2 -30 18 -21 23 -26 25 -35
12 -15 -23 -12 -29 18 -36 15 -4 36 -13 47 -20 11 -8 26 -14 34 -14 8 0 23 -7
33 -17 10 -9 35 -19 55 -22 46 -8 57 -31 14 -31 -16 0 -32 4 -35 9 -3 5 -26
12 -50 15 -24 4 -50 13 -56 21 -7 8 -31 20 -54 27 -22 6 -47 16 -53 21 -9 6
-18 5 -28 -3 -17 -14 -20 -46 -5 -55 6 -4 9 -1 8 7 -5 22 46 21 71 -2 13 -11
33 -20 45 -20 17 -1 15 -3 -9 -14 -25 -11 -34 -10 -53 2 -32 21 -40 7 -12 -23
21 -22 21 -25 5 -25 -10 0 -24 8 -31 17 -7 10 -16 14 -21 9 -4 -5 -2 -11 5
-13 6 -3 12 -11 12 -18 0 -18 60 -31 70 -15 5 8 15 10 26 5 17 -8 17 -9 -3
-12 -27 -5 -28 -11 -8 -37 20 -27 19 -34 -7 -38 -13 -2 -22 -6 -20 -10 1 -5 2
-21 2 -38 0 -20 5 -30 15 -30 8 0 15 -4 15 -10 0 -5 -9 -10 -21 -10 -12 0 -17
-4 -14 -11 4 -6 19 -7 36 -4 16 4 29 2 29 -3 0 -17 33 -24 42 -8 11 19 41 10
69 -20 26 -28 16 -30 -34 -9 -32 13 -47 12 -47 -6 0 -8 81 -49 98 -49 7 0 12
-6 12 -14 0 -7 14 -20 32 -29 l32 -16 -27 -6 c-16 -4 -33 -2 -41 4 -8 7 -25 9
-40 5 -28 -7 -36 -24 -11 -24 8 0 23 -4 33 -9 9 -5 34 -17 54 -26 21 -8 43
-25 49 -36 10 -19 9 -20 -13 -14 -12 4 -31 14 -40 22 -19 17 -49 14 -56 -5 -2
-7 14 -20 40 -32 57 -25 61 -30 40 -47 -15 -13 -14 -14 16 -9 30 5 33 4 30
-17 -4 -31 -63 -38 -71 -7 -4 14 -10 18 -24 14 -15 -5 -15 -4 -3 5 18 13 12
19 -30 27 -28 6 -32 5 -27 -8 7 -21 -3 -31 -18 -18 -19 16 -44 2 -38 -21 5
-19 2 -20 -31 -14 -37 7 -52 -8 -18 -18 9 -3 31 -10 49 -15 26 -8 31 -8 26 4
-3 8 1 14 11 14 9 0 16 -7 16 -16 0 -19 24 -44 43 -44 8 0 25 -11 39 -23 19
-18 34 -23 57 -19 17 2 31 0 31 -5 0 -16 -45 -53 -65 -53 -40 0 7 -26 52 -29
6 -1 13 -11 15 -24 2 -15 11 -23 28 -25 14 -2 29 -8 35 -13 5 -5 15 -9 23 -9
16 0 51 -39 52 -57 0 -7 -7 -13 -16 -13 -11 0 -14 6 -9 20 8 26 -6 26 -28 0
-20 -24 -35 -26 -43 -5 -4 8 -17 15 -30 15 -13 0 -24 5 -24 10 0 6 -7 10 -15
10 -8 0 -15 -7 -15 -16 0 -14 -1 -14 -16 0 -8 9 -30 16 -47 16 l-32 0 33 -16
c17 -9 32 -20 32 -25 0 -5 12 -4 26 1 34 13 34 13 34 -10 0 -12 6 -20 13 -19
21 4 87 -13 93 -23 8 -13 -17 -29 -33 -23 -7 3 -20 8 -28 11 -11 5 -15 -1 -15
-20 0 -31 -21 -34 -95 -10 -27 9 -61 17 -75 19 -14 1 -31 4 -39 6 -27 7 -23
-27 4 -39 28 -13 29 -39 3 -34 -11 1 -18 -9 -22 -32 -8 -42 -27 -51 -59 -25
-26 20 -47 25 -47 11 0 -14 38 -50 60 -57 11 -3 20 -15 20 -26 0 -10 5 -19 10
-19 6 0 10 -7 10 -15 0 -8 -5 -15 -10 -15 -6 0 -13 7 -16 15 -4 9 -19 15 -40
15 -20 0 -38 7 -46 18 -9 12 -27 17 -63 16 -27 0 -65 6 -84 14 -18 7 -40 11
-49 7 -9 -3 -24 4 -35 16 -14 15 -22 18 -25 10 -2 -7 3 -20 12 -30 20 -22 20
-31 1 -31 -8 0 -15 9 -15 20 0 14 -7 20 -22 20 -17 0 -19 3 -10 12 7 7 12 15
12 19 0 14 -54 16 -85 3 -31 -13 -32 -13 -27 12 3 18 1 23 -10 19 -8 -3 -26 5
-39 17 -16 14 -41 24 -65 25 -46 3 -75 17 -92 44 -10 16 -10 21 4 26 9 3 20 0
26 -8 8 -12 9 -11 5 1 -2 8 -12 17 -23 18 -10 2 -34 11 -52 19 -27 13 -35 13
-45 3 -9 -10 -9 -11 1 -6 7 5 12 1 12 -10 0 -10 3 -14 7 -11 7 8 33 -11 33
-24 0 -9 -74 26 -100 47 -44 35 -157 151 -163 167 -3 9 -18 22 -32 29 -15 7
-24 18 -23 27 2 9 -17 33 -42 55 -25 21 -52 48 -60 60 -9 12 -34 39 -56 62
-22 23 -51 61 -63 85 -12 24 -45 85 -72 134 -80 145 -105 203 -144 330 -30 99
-38 147 -48 273 -6 83 -14 152 -17 152 -6 0 -74 -78 -112 -130 -36 -48 -138
-217 -138 -229 0 -14 -67 -112 -103 -150 -18 -18 -61 -57 -97 -86 -36 -29
-108 -92 -160 -139 -87 -80 -253 -211 -360 -283 -129 -88 -260 -168 -300 -184
-25 -10 -88 -34 -140 -55 -120 -46 -293 -120 -455 -194 -38 -17 -117 -52 -175
-76 -117 -50 -147 -64 -270 -122 -47 -22 -138 -65 -204 -96 -65 -31 -122 -56
-127 -56 -18 0 -958 -465 -1114 -550 -60 -34 -184 -97 -275 -142 -186 -92
-211 -98 -505 -118 -250 -18 -558 -80 -692 -141 -30 -13 -54 -17 -90 -13 -121
15 -393 -139 -453 -256 -10 -20 -26 -42 -34 -49 -14 -12 -16 -86 -16 -682 l0
-669 2064 0 c1822 0 2065 2 2076 15 7 8 19 15 27 15 9 0 13 -6 9 -15 -5 -13
178 -15 1609 -15 1605 0 1614 0 1620 20 7 23 25 27 25 6 0 -20 17 -29 26 -15
5 8 3 9 -6 4 -9 -5 -11 -4 -6 3 11 18 36 15 30 -3 -5 -13 462 -15 4170 -15
l4176 0 0 985 0 985 -41 0 c-22 0 -93 18 -157 40 -120 40 -267 73 -382 85 -36
3 -184 2 -330 -4 l-265 -11 -85 30 c-130 46 -279 113 -400 179 -70 39 -435
211 -446 211 -11 0 -406 203 -429 221 -6 4 -105 56 -220 115 -115 59 -226 117
-245 129 -40 24 -549 278 -628 313 -28 12 -56 22 -62 22 -6 0 -28 9 -48 19
-21 11 -114 45 -207 77 -94 31 -187 65 -207 75 -21 11 -42 19 -47 19 -23 0
-257 113 -311 150 -14 9 -90 61 -170 114 -234 155 -264 177 -366 261 -122 101
-220 207 -291 315 -31 47 -68 101 -83 120 l-27 35 -7 254 c-4 166 -10 259 -18
268 -8 10 -8 20 1 39 18 40 14 125 -8 158 -11 17 -17 34 -14 39 3 6 -2 16 -11
23 -19 13 -14 34 8 34 8 0 19 7 27 16 11 14 10 15 -7 12 -17 -3 -19 2 -17 58
1 33 9 73 17 89 15 29 12 131 -5 149 -17 19 -10 38 11 31 20 -6 26 6 21 43 -1
6 3 12 9 12 6 0 18 17 27 37 8 21 24 44 34 51 10 7 19 19 19 27 0 20 69 87 81
79 6 -4 3 -15 -10 -28 -27 -29 -45 -76 -28 -76 31 1 77 62 77 102 0 16 5 28
11 28 7 0 8 7 4 18 -5 9 -9 41 -10 70 -2 47 0 54 20 62 13 5 25 20 28 37 3 15
11 54 17 86 11 50 15 57 36 57 16 0 28 -9 39 -30 20 -38 19 -40 -7 -41 -22 0
-22 -1 -3 -9 11 -4 40 -6 64 -2 34 4 43 2 39 -9 -2 -7 -19 -16 -37 -20 -18 -4
-38 -12 -44 -19 -9 -9 -7 -11 8 -7 11 3 44 9 73 12 44 6 52 4 52 -9 0 -9 -7
-16 -15 -16 -8 0 -24 -9 -35 -20 -12 -12 -25 -18 -30 -15 -6 4 -10 1 -10 -5 0
-6 -5 -8 -11 -4 -7 4 -10 1 -7 -6 2 -8 29 -19 59 -26 107 -25 235 19 272 93 8
16 19 50 26 77 7 27 20 59 30 71 9 13 25 49 35 81 10 33 29 79 41 104 13 25
28 74 35 110 16 90 30 128 56 145 47 30 176 359 199 505 9 58 20 128 25 155
12 70 12 253 0 296 -14 48 -71 113 -124 138 -41 20 -48 21 -108 8 -48 -10 -75
-10 -108 -2 -52 13 -59 28 -37 84 32 78 113 514 102 543 -3 7 -15 18 -28 23
-26 12 -34 50 -14 73 8 9 17 25 20 35 4 11 17 17 37 17 26 0 30 3 30 29 0 16
-7 34 -15 41 -8 7 -15 18 -15 25 0 7 -9 33 -20 57 -15 34 -17 52 -11 76 5 17
7 49 4 71 -5 40 -16 51 -28 31 -10 -17 -136 8 -170 34 -19 14 -17 15 27 16 26
0 82 -8 124 -17 68 -15 79 -20 96 -49 12 -21 30 -35 49 -39 18 -4 29 -13 29
-23 0 -9 9 -30 20 -47 21 -32 27 -99 10 -110 -6 -4 -23 -25 -38 -48 -22 -35
-26 -51 -23 -96 3 -47 0 -56 -22 -75 -22 -18 -29 -38 -47 -141 -11 -66 -30
-153 -40 -193 -11 -40 -27 -115 -34 -165 -12 -80 -12 -95 0 -115 l15 -23 24
23 c14 13 25 33 25 46 0 15 6 22 20 22 17 0 18 5 13 50 -5 44 -2 58 26 110 25
46 30 64 22 74 -9 10 -7 15 9 19 11 3 23 13 27 24 3 10 18 33 32 52 l26 34
-30 -7 c-29 -7 -29 -7 -10 14 10 11 24 19 31 16 7 -3 15 9 19 32 4 20 11 42
15 47 5 6 10 29 11 50 1 22 11 57 21 77 21 43 23 74 6 81 -7 2 -9 8 -5 13 4 5
12 3 16 -5 7 -10 12 -11 29 0 l21 13 -20 28 c-22 30 -17 57 6 38 19 -16 42 87
26 117 -9 17 -7 22 9 26 13 3 20 14 20 29 0 33 18 48 50 42 34 -7 70 34 70 80
-1 28 -2 29 -14 14 -18 -25 -26 -22 -26 8 0 15 -8 33 -17 40 -16 12 -15 13 10
14 17 0 27 -5 27 -15 0 -22 18 -18 25 5 3 11 13 20 22 20 11 0 13 5 7 18 -5 9
-9 67 -9 127 0 95 3 114 22 143 18 29 19 39 11 70 -6 21 -15 43 -20 50 -6 7
-8 30 -5 52 3 25 1 40 -5 40 -7 0 -9 20 -5 54 4 39 1 60 -10 75 -8 12 -16 50
-18 84 -8 121 -8 202 -1 227 3 14 4 19 0 13 -3 -7 -13 -13 -21 -13 -14 0 -14
2 -1 18 42 50 42 109 0 131 -11 6 -23 22 -26 36 -4 14 -12 25 -19 24 -27 -3
-37 2 -37 21 0 11 -4 20 -10 20 -16 0 -11 38 6 48 11 6 16 23 16 60 -1 29 3
52 9 52 5 0 9 9 9 20 0 16 -5 19 -24 14 -20 -5 -24 -1 -30 27 -3 17 -6 51 -6
75 0 54 -15 94 -35 94 -12 0 -15 8 -13 28 2 19 8 26 20 24 12 -2 15 3 11 18
-3 11 -9 20 -14 20 -5 0 -9 12 -9 27 0 15 -9 36 -20 48 -11 12 -23 42 -26 71
-8 56 -19 74 -45 74 -24 0 -60 20 -76 42 -8 9 -36 31 -63 49 -54 35 -59 43
-34 57 14 8 11 15 -21 51 -20 22 -46 41 -56 41 -11 0 -28 10 -39 23 -12 13
-43 30 -70 37 -28 8 -50 17 -50 22 0 4 -7 8 -15 8 -8 0 -15 4 -15 9 0 5 -3 17
-7 26 -5 15 -3 16 15 6 19 -10 22 -9 22 5 0 9 -7 22 -16 29 -9 6 -15 20 -13
30 4 17 5 18 21 2 19 -19 24 -14 26 24 1 16 -8 35 -23 49 -14 13 -25 29 -25
36 0 6 -7 14 -15 18 -8 3 -15 11 -15 19 0 21 -55 58 -68 45 -8 -8 -14 -4 -23
15 -8 17 -23 28 -48 34 -28 7 -36 14 -37 32 -2 26 -20 42 -41 34 -7 -3 -20 0
-28 7 -10 9 -15 9 -15 1 0 -6 -4 -11 -9 -11 -6 0 -9 8 -9 18 1 29 -20 70 -39
76 -15 5 -18 18 -20 77 -1 44 -6 75 -14 79 -6 5 -15 25 -18 46 -5 33 -10 39
-34 42 -16 2 -27 9 -27 19 0 17 -38 52 -57 53 -7 0 -13 5 -13 12 0 6 -3 8 -6
5 -4 -4 -1 -13 5 -21 9 -10 9 -16 1 -21 -12 -7 -39 22 -40 42 0 6 5 15 10 18
6 3 10 10 10 16 0 12 -37 12 -45 0 -3 -6 -40 -9 -83 -8 -75 2 -79 4 -120 41
-23 21 -44 48 -48 58 -4 13 -12 18 -24 15 -13 -3 -20 5 -30 36 -13 46 -40 80
-40 52 0 -9 4 -25 10 -35 16 -30 3 -47 -31 -42 -37 5 -48 22 -20 29 12 3 21
12 21 20 0 11 -5 13 -17 8 -47 -20 -58 -17 -77 22 -10 21 -22 45 -27 53 -5 8
-12 23 -16 33 -4 14 -12 16 -39 11 -21 -4 -34 -2 -34 4 0 6 -18 13 -39 17 -22
4 -45 13 -52 21 -6 8 -19 14 -28 14 -9 0 -27 7 -40 17 -20 13 -27 14 -44 3
-13 -8 -22 -9 -24 -3 -11 32 -32 45 -70 45 -34 -1 -47 5 -77 35 -20 20 -36 40
-36 45 0 5 -9 7 -19 3 -11 -3 -22 -1 -26 5 -10 17 -25 11 -25 -10 0 -11 -7
-20 -15 -20 -9 0 -18 -7 -21 -15 -7 -18 -41 -20 -46 -4 -5 16 -48 1 -48 -17 0
-8 -4 -14 -10 -14 -5 0 -10 8 -10 18 0 10 -7 27 -15 38 -14 18 -14 18 -15 -7
0 -35 -10 -42 -31 -23 -16 14 -18 14 -29 -5 -14 -27 -37 -27 -45 -1 -7 23 -16
24 -65 10 -29 -8 -39 -7 -63 10 -24 18 -32 19 -67 9 -33 -10 -43 -9 -65 5 -14
9 -25 21 -25 26 0 6 -7 10 -15 10 -8 0 -15 9 -15 19 0 18 -3 19 -30 10 -16 -6
-30 -15 -30 -20 0 -15 -30 -10 -36 6 -4 8 -12 15 -19 15 -7 0 -18 7 -25 15 -7
8 -23 15 -36 15 -20 0 -24 -5 -24 -30 0 -27 -2 -30 -19 -20 -14 7 -20 7 -23
-2 -8 -23 -28 4 -28 37 0 31 -3 33 -37 38 -21 3 -47 8 -58 11 -11 3 -26 2 -34
-3z m-291 -186 c0 -8 -7 -15 -15 -15 -16 0 -20 12 -8 23 11 12 23 8 23 -8z
m-507 -47 c-2 -5 -1 -13 3 -20 5 -8 10 -6 15 8 6 15 8 13 8 -11 0 -16 -3 -36
-8 -44 -13 -21 -41 -5 -41 23 0 14 -4 28 -10 31 -17 10 -11 43 8 47 17 4 34
-20 25 -34z m1062 -168 c3 -5 2 -10 -4 -10 -5 0 -13 5 -16 10 -3 6 -2 10 4 10
5 0 13 -4 16 -10z m-723 -112 c-7 -7 -12 -8 -12 -2 0 14 12 26 19 19 2 -3 -1
-11 -7 -17z m2517 -165 c1 -7 -3 -13 -8 -13 -12 0 -21 38 -13 58 5 14 7 12 13
-8 4 -14 7 -31 8 -37z m-3589 43 c0 -3 -4 -8 -10 -11 -5 -3 -10 -1 -10 4 0 6
5 11 10 11 6 0 10 -2 10 -4z m-270 -146 c0 -5 -4 -10 -10 -10 -5 0 -10 5 -10
10 0 6 5 10 10 10 6 0 10 -4 10 -10z m4040 -135 c0 -14 -4 -25 -10 -25 -5 0
-10 11 -10 25 0 14 5 25 10 25 6 0 10 -11 10 -25z m-4355 -175 c3 -5 2 -10 -4
-10 -5 0 -13 5 -16 10 -3 6 -2 10 4 10 5 0 13 -4 16 -10z m3485 -115 c0 -8 -4
-15 -10 -15 -5 0 -10 7 -10 15 0 8 5 15 10 15 6 0 10 -7 10 -15z m-3570 -111
c0 -8 -4 -12 -10 -9 -5 3 -10 10 -10 16 0 5 5 9 10 9 6 0 10 -7 10 -16z m3700
-54 c0 -5 -5 -10 -11 -10 -5 0 -7 5 -4 10 3 6 8 10 11 10 2 0 4 -4 4 -10z
m-4028 -52 c-6 -6 -15 -8 -19 -4 -4 4 -1 11 7 16 19 12 27 3 12 -12z m-192
-184 c0 -8 -4 -12 -10 -9 -5 3 -10 13 -10 21 0 8 5 12 10 9 6 -3 10 -13 10
-21z m-74 -201 c-10 -10 -19 5 -10 18 6 11 8 11 12 0 2 -7 1 -15 -2 -18z
m6004 -413 c0 -5 -4 -10 -10 -10 -5 0 -10 5 -10 10 0 6 5 10 10 10 6 0 10 -4
10 -10z m123 -445 c-6 -16 -16 -19 -26 -8 -9 8 13 34 24 28 4 -3 6 -12 2 -20z
m-2186 -81 c-3 -3 -12 -4 -19 -1 -8 3 -5 6 6 6 11 1 17 -2 13 -5z m-4032 -184
c11 -17 -5 -32 -21 -19 -7 6 -11 15 -8 20 7 12 21 11 29 -1z m6205 -11 c0 -11
-4 -17 -10 -14 -5 3 -10 13 -10 21 0 8 5 14 10 14 6 0 10 -9 10 -21z m4 -54
c3 -9 0 -15 -9 -15 -8 0 -15 7 -15 15 0 8 4 15 9 15 5 0 11 -7 15 -15z m-6022
-59 c3 -25 0 -32 -10 -29 -7 3 -11 12 -8 20 3 8 6 21 6 29 0 27 8 14 12 -20z
m3967 -116 c47 -6 93 -8 103 -4 12 3 18 0 18 -10 0 -9 -3 -16 -7 -17 -22 -2
-102 -6 -228 -13 -131 -7 -145 -10 -210 -41 -38 -19 -104 -60 -145 -91 -76
-58 -180 -153 -180 -165 0 -4 17 -9 38 -12 20 -3 56 -10 80 -16 52 -14 77 -3
85 36 7 30 96 103 127 103 9 0 27 11 39 24 29 31 143 58 156 36 3 -4 23 -6 45
-3 l40 6 0 -56 c0 -46 -3 -57 -19 -62 -11 -3 -21 -12 -24 -19 -6 -16 43 -29
70 -19 13 4 15 3 7 -6 -5 -6 -48 -18 -94 -26 -47 -8 -127 -28 -180 -44 -52
-16 -109 -32 -126 -36 -20 -4 -34 -14 -37 -27 -3 -12 -10 -17 -17 -13 -6 4 -9
13 -6 20 7 20 -13 32 -66 40 -39 6 -49 4 -54 -9 -3 -9 -16 -16 -29 -16 -17 0
-24 7 -28 28 -4 16 -18 34 -36 44 -32 18 -41 38 -17 38 7 0 32 28 55 63 71
107 184 212 270 250 44 19 200 38 256 31 17 -2 68 -9 114 -14z m401 -6 c0 -2
-19 -4 -42 -3 -35 1 -38 2 -18 8 23 7 60 4 60 -5z m-4515 -155 c11 -17 -1 -21
-15 -4 -8 9 -8 15 -2 15 6 0 14 -5 17 -11z m6250 1 c-3 -5 -10 -10 -16 -10 -5
0 -9 5 -9 10 0 6 7 10 16 10 8 0 12 -4 9 -10z m-6168 -82 c-3 -8 -6 -5 -6 6
-1 11 2 17 5 13 3 -3 4 -12 1 -19z m3308 -87 c10 -17 -12 -21 -25 -6 -10 12
-10 15 3 15 9 0 18 -4 22 -9z m-3315 -67 c0 -8 -4 -14 -10 -14 -5 0 -10 9 -10
21 0 11 5 17 10 14 6 -3 10 -13 10 -21z m4026 -31 c-3 -41 -27 -83 -50 -88
-22 -5 -97 -14 -186 -21 -108 -9 -155 -16 -165 -24 -18 -14 -115 -42 -128 -37
-6 3 8 14 33 26 60 29 83 43 93 59 4 6 13 12 18 12 6 0 25 11 42 24 62 48 155
74 264 75 l81 1 -2 -27z m-4376 -19 c0 -8 -5 -12 -10 -9 -6 4 -8 11 -5 16 9
14 15 11 15 -7z m4415 -43 c-7 -23 -25 -29 -25 -8 0 14 21 39 28 33 2 -3 1
-14 -3 -25z m-4095 -16 c0 -13 -4 -27 -10 -30 -5 -3 -10 -15 -10 -25 0 -10 -9
-22 -20 -25 -11 -3 -20 -13 -20 -21 0 -8 -4 -14 -10 -14 -17 0 -11 30 10 52
11 12 25 39 31 60 11 41 29 43 29 3z m5384 -83 c10 -17 -16 -147 -31 -159 -28
-22 -49 0 -47 49 1 40 11 93 21 111 6 10 51 9 57 -1z m64 -19 c-5 -26 -38 -29
-38 -4 0 15 6 21 21 21 14 0 19 -5 17 -17z m684 -27 c13 -19 9 -26 -17 -26
-14 0 -25 5 -25 10 0 6 -7 10 -15 10 -15 0 -20 12 -10 22 9 8 59 -4 67 -16z
m-2102 5 c0 -12 -25 -21 -58 -21 -42 0 -4 24 46 29 6 0 12 -3 12 -8z m-107 -6
c11 -5 12 -15 4 -55 -7 -38 -6 -60 5 -95 15 -44 15 -45 -7 -45 -27 0 -121 28
-157 46 -34 18 -28 46 17 74 18 11 35 29 38 39 3 11 19 22 43 29 22 5 40 10
41 11 1 1 8 -1 16 -4z m1631 -44 c13 -20 -8 -40 -61 -60 -68 -26 -96 -27 -91
-4 2 10 24 25 53 36 28 10 52 23 53 28 5 12 39 12 46 0z m-5619 -122 c-20 -46
-40 -88 -45 -93 -14 -14 17 80 35 108 11 16 15 35 11 50 -4 15 -1 26 7 29 28
10 26 -14 -8 -94z m-48 59 c-3 -8 -6 -5 -6 6 -1 11 2 17 5 13 3 -3 4 -12 1
-19z m3819 7 c18 -15 18 -15 -5 -13 -14 2 -26 9 -29 16 -5 17 10 15 34 -3z
m1917 -51 c30 -7 39 -44 11 -44 -11 0 -14 -5 -9 -17 11 -31 10 -38 -5 -34 -8
2 -31 4 -50 5 -33 1 -35 3 -38 39 -4 46 13 71 42 62 12 -3 33 -8 49 -11z
m-2320 -27 c3 -8 2 -19 -3 -26 -5 -10 -9 -8 -14 4 -3 9 -6 21 -6 26 0 14 17
11 23 -4z m454 -2 c9 -7 13 -17 10 -22 -9 -15 -85 1 -105 21 -15 15 -13 16 31
15 26 -1 55 -8 64 -14z m-287 -34 c5 -11 10 -33 10 -50 0 -21 5 -31 15 -31 27
0 294 -213 312 -250 19 -38 9 -35 -41 15 -43 42 -85 65 -243 136 -34 16 -53
30 -53 41 0 11 -5 15 -14 12 -8 -3 -17 0 -22 7 -4 7 -2 15 4 17 22 7 12 22
-13 22 -31 0 -43 25 -23 48 8 9 18 25 21 35 8 23 34 22 47 -2z m-3599 -108
c-9 -16 -10 -16 -11 -1 0 9 3 25 7 35 7 16 8 17 11 1 2 -10 -1 -25 -7 -35z
m5624 -135 c-8 -60 -24 -99 -25 -60 0 27 20 112 27 112 3 0 2 -24 -2 -52z
m-1955 -35 c0 -7 -4 -13 -10 -13 -5 0 -10 3 -10 8 0 4 -3 18 -6 32 -6 24 -6
25 9 5 9 -11 17 -26 17 -32z m141 0 c13 -15 12 -15 -8 -4 -24 12 -29 21 -14
21 5 0 15 -7 22 -17z m-158 -79 c-7 -18 -50 -37 -64 -28 -17 10 -9 25 23 39
37 15 50 12 41 -11z m747 -249 c0 -8 -4 -15 -10 -15 -5 0 -10 7 -10 15 0 8 5
15 10 15 6 0 10 -7 10 -15z m885 -139 c-49 -58 -66 -68 -140 -81 -27 -5 -28
-4 -10 7 10 7 33 26 49 42 17 16 44 33 60 39 17 6 42 21 55 33 43 40 35 17
-14 -40z m-790 14 c3 -5 -1 -10 -10 -10 -9 0 -13 5 -10 10 3 6 8 10 10 10 2 0
7 -4 10 -10z m-4367 -703 c4 -29 -7 -33 -39 -17 -24 13 -25 37 -1 43 28 7 37
2 40 -26z m2460 -18 c3 -27 -15 -85 -24 -76 -9 9 -59 -9 -59 -21 0 -16 -19
-15 -21 1 -2 29 -5 29 -28 8 -15 -14 -26 -19 -30 -12 -4 6 -19 8 -34 5 -16 -3
-35 1 -46 9 -19 14 -18 15 17 32 20 9 37 21 37 26 0 5 6 9 14 9 8 0 21 9 28
19 14 20 45 27 108 26 30 0 35 -4 38 -26z m-2198 -124 c0 -8 -7 -15 -15 -15
-26 0 -18 20 13 29 1 1 2 -6 2 -14z m-64 -44 c3 -14 8 -34 11 -45 3 -12 1 -16
-6 -12 -6 4 -11 15 -11 25 0 10 -10 25 -22 33 -12 8 -18 19 -14 26 11 18 36 2
42 -27z m2454 10 c0 -36 -10 -44 -45 -35 -30 7 -31 18 -5 44 29 29 50 26 50
-9z m-2380 -232 c0 -5 -4 -9 -10 -9 -5 0 -10 7 -10 16 0 8 5 12 10 9 6 -3 10
-10 10 -16z m2844 -14 c8 -21 -10 -28 -34 -13 -26 17 -25 23 4 26 13 1 27 -5
30 -13z m33 9 c-3 -3 -12 -4 -19 -1 -8 3 -5 6 6 6 11 1 17 -2 13 -5z m-1607
-14 c0 -5 -5 -10 -11 -10 -5 0 -7 5 -4 10 3 6 8 10 11 10 2 0 4 -4 4 -10z
m1680 -15 c0 -14 -4 -25 -10 -25 -5 0 -10 11 -10 25 0 14 5 25 10 25 6 0 10
-11 10 -25z m-3017 -15 c3 -11 1 -20 -4 -20 -5 0 -9 9 -9 20 0 11 2 20 4 20 2
0 6 -9 9 -20z m97 -36 c0 -16 -16 -19 -25 -4 -8 13 4 32 16 25 5 -4 9 -13 9
-21z m2691 -67 c-10 -9 -11 -8 -5 6 3 10 9 15 12 12 3 -3 0 -11 -7 -18z
m-2566 -217 c0 -19 3 -40 8 -47 4 -7 1 -16 -9 -21 -13 -7 -23 -3 -41 16 -28
30 -31 64 -5 56 16 -5 16 -5 0 9 -26 21 -22 29 15 25 29 -3 32 -6 32 -38z
m5120 -19 c3 -5 1 -12 -5 -16 -5 -3 -10 1 -10 9 0 18 6 21 15 7z m-5083 -155
c-9 -17 -21 21 -14 45 6 23 6 23 12 -6 4 -16 4 -34 2 -39z m230 -100 c-2 -4
-8 -2 -13 5 -5 8 -9 10 -9 4 0 -5 -5 -2 -11 8 -8 13 -7 22 2 33 11 13 14 11
24 -13 7 -15 10 -32 7 -37z m4628 -16 c0 -5 -4 -10 -9 -10 -6 0 -13 5 -16 10
-3 6 1 10 9 10 9 0 16 -4 16 -10z m-76 -19 c3 -5 -6 -12 -20 -15 -29 -8 -39
-3 -29 13 8 13 42 14 49 2z m-4344 -132 c0 -11 -4 -17 -10 -14 -5 3 -10 15
-10 26 0 11 5 17 10 14 6 -3 10 -15 10 -26z m4492 6 c0 -5 -5 -11 -11 -13 -6
-2 -11 4 -11 13 0 9 5 15 11 13 6 -2 11 -8 11 -13z m-4458 -267 c3 -7 7 -26
11 -43 l6 -30 -20 22 c-22 23 -29 63 -11 63 6 0 12 -6 14 -12z m716 -199 c0
-5 -4 -9 -10 -9 -5 0 -10 7 -10 16 0 8 5 12 10 9 6 -3 10 -10 10 -16z m-1230
-80 c0 -5 -4 -9 -10 -9 -5 0 -10 7 -10 16 0 8 5 12 10 9 6 -3 10 -10 10 -16z
m484 -689 c14 -5 26 -17 26 -26 0 -13 -3 -14 -15 -4 -8 7 -15 9 -15 5 0 -4 -7
-2 -15 5 -14 12 -21 30 -11 30 3 0 16 -4 30 -10z m255 -354 c8 -10 9 -16 1
-21 -13 -8 -30 3 -30 21 0 18 14 18 29 0z m361 -10 c0 -2 -9 -6 -20 -9 -11 -3
-20 -1 -20 4 0 5 9 9 20 9 11 0 20 -2 20 -4z m-61 -55 c-15 -5 -22 6 -14 19 6
9 10 9 16 -1 5 -8 4 -15 -2 -18z m-39 -2 c0 -6 -4 -7 -10 -4 -5 3 -10 11 -10
16 0 6 5 7 10 4 6 -3 10 -11 10 -16z m610 -194 c17 -20 -7 -20 -34 0 -19 15
-19 15 1 15 11 0 26 -7 33 -15z m-53 -163 c-21 -4 -49 16 -41 29 3 5 17 1 32
-9 21 -14 23 -17 9 -20z m63 26 c0 9 14 12 48 10 62 -4 52 -23 -13 -23 -57 -1
-68 2 -59 17 4 6 10 5 15 -3 7 -11 9 -11 9 -1z m-2000 -48 c0 -5 -4 -10 -10
-10 -5 0 -10 5 -10 10 0 6 5 10 10 10 6 0 10 -4 10 -10z m2105 -30 c8 -13 -21
-13 -47 1 -16 9 -18 13 -7 19 13 9 43 -2 54 -20z m-110 -26 c53 -10 56 -28 4
-19 -52 9 -45 4 -53 35 -6 20 -5 22 4 8 6 -10 26 -20 45 -24z m-187 4 c4 -21
-37 -25 -56 -6 -20 20 -13 29 20 26 22 -2 34 -9 36 -20z m-44 -69 c-8 -14 -44
-10 -44 5 0 9 8 12 25 8 14 -2 22 -8 19 -13z m364 9 c-5 -16 -48 -24 -48 -10
0 11 17 20 38 21 8 1 12 -5 10 -11z m-268 -76 c2 -2 -2 -7 -10 -13 -12 -7 -11
-10 8 -15 12 -4 22 -10 22 -15 0 -13 -14 -11 -43 4 -20 11 -23 17 -15 25 9 9
4 12 -20 12 -33 0 -40 8 -21 27 10 10 40 0 79 -25z m108 20 c2 -7 -3 -12 -12
-12 -9 0 -16 7 -16 16 0 17 22 14 28 -4z m158 -28 c-3 -9 -6 -18 -6 -20 0 -7
-76 -4 -84 3 -4 5 12 13 36 19 59 16 61 16 54 -2z m-336 -58 c-11 -11 -80 18
-80 32 0 20 15 20 51 -1 24 -14 35 -25 29 -31z m228 -62 c-9 -9 -24 -14 -32
-11 -27 11 -17 27 16 27 30 0 31 -1 16 -16z m69 -549 c-2 -12 -48 -8 -62 6 -6
6 3 9 27 7 21 -2 37 -7 35 -13z m83 -79 c0 -3 -4 -8 -10 -11 -5 -3 -10 -1 -10
4 0 6 5 11 10 11 6 0 10 -2 10 -4z m-285 -166 c3 -5 -3 -10 -14 -10 -12 0 -21
5 -21 10 0 6 6 10 14 10 8 0 18 -4 21 -10z m-25 -62 c10 -17 17 -35 14 -40 -8
-13 -81 -9 -93 5 -12 15 3 37 26 37 7 0 12 3 12 8 -6 34 17 28 41 -10z m-620
-9 c0 -27 -17 -23 -22 5 -4 17 -1 23 9 19 7 -3 13 -14 13 -24z m-48 -1 c-7 -7
-12 -8 -12 -2 0 14 12 26 19 19 2 -3 -1 -11 -7 -17z m458 -98 c0 -5 -4 -10
-10 -10 -5 0 -10 5 -10 10 0 6 5 10 10 10 6 0 10 -4 10 -10z m-162 -38 c2 -7
-3 -12 -12 -12 -9 0 -16 7 -16 16 0 17 22 14 28 -4z m42 -32 c0 -5 -4 -10 -10
-10 -5 0 -10 5 -10 10 0 6 5 10 10 10 6 0 10 -4 10 -10z m-3030 -8 c0 -13 -12
-22 -22 -16 -10 6 -1 24 13 24 5 0 9 -4 9 -8z m3090 -2 c0 -5 -7 -10 -16 -10
-8 0 -12 5 -9 10 3 6 10 10 16 10 5 0 9 -4 9 -10z m55 -40 c3 -5 -1 -10 -9
-10 -9 0 -16 5 -16 10 0 6 4 10 9 10 6 0 13 -4 16 -10z m150 0 c3 -5 -3 -10
-15 -10 -12 0 -18 5 -15 10 3 6 10 10 15 10 5 0 12 -4 15 -10z m-214 -86 c12
-14 11 -16 -5 -13 -11 2 -21 10 -24 17 -5 17 13 15 29 -4z m-1964 -126 c-3 -8
-6 -5 -6 6 -1 11 2 17 5 13 3 -3 4 -12 1 -19z m-102 -48 c3 -5 1 -10 -4 -10
-6 0 -11 5 -11 10 0 6 2 10 4 10 3 0 8 -4 11 -10z m-2135 -190 c0 -5 -2 -10
-4 -10 -3 0 -8 5 -11 10 -3 6 -1 10 4 10 6 0 11 -4 11 -10z m1175 -320 c3 -5
-3 -10 -15 -10 -12 0 -18 5 -15 10 3 6 10 10 15 10 5 0 12 -4 15 -10z m3385
-39 c0 -16 -19 -23 -40 -16 -30 10 -24 25 10 25 17 0 30 -4 30 -9z m-2910
-101 c0 -5 -5 -10 -11 -10 -5 0 -7 5 -4 10 3 6 8 10 11 10 2 0 4 -4 4 -10z
m-59 -30 c5 0 9 -5 9 -11 0 -8 -5 -8 -15 1 -8 7 -14 20 -14 29 1 13 2 13 6 -1
2 -10 9 -18 14 -18z m-1451 -24 c0 -3 -4 -8 -10 -11 -5 -3 -10 -1 -10 4 0 6 5
11 10 11 6 0 10 -2 10 -4z m1410 -16 c0 -5 -5 -10 -11 -10 -5 0 -7 5 -4 10 3
6 8 10 11 10 2 0 4 -4 4 -10z m-120 -22 c0 -6 -6 -5 -15 2 -8 7 -15 14 -15 16
0 2 7 1 15 -2 8 -4 15 -11 15 -16z m80 -2 c0 -3 -4 -8 -10 -11 -5 -3 -10 -1
-10 4 0 6 5 11 10 11 6 0 10 -2 10 -4z m-173 -59 c-7 -21 -25 -17 -29 7 -4 22
-3 24 14 15 11 -6 18 -15 15 -22z m66 -17 c-3 -11 -7 -20 -9 -20 -2 0 -4 9 -4
20 0 11 4 20 9 20 5 0 7 -9 4 -20z m-43 -20 c0 -11 -4 -20 -10 -20 -5 0 -10 9
-10 20 0 11 5 20 10 20 6 0 10 -9 10 -20z m-1140 -120 c0 -5 -2 -10 -4 -10 -3
0 -8 5 -11 10 -3 6 -1 10 4 10 6 0 11 -4 11 -10z m-345 -30 c3 -5 1 -10 -4
-10 -6 0 -11 5 -11 10 0 6 2 10 4 10 3 0 8 -4 11 -10z m9351 -26 c-9 -22 12
-134 30 -161 20 -32 18 -35 -18 -28 l-33 6 23 -20 c31 -27 28 -31 -19 -31 -24
0 -38 -4 -34 -10 3 -5 15 -10 26 -10 10 0 19 -4 19 -10 0 -11 -15 -13 -72 -10
-31 1 -38 -2 -43 -22 -3 -13 -1 -36 4 -52 6 -15 11 -38 11 -51 0 -13 5 -27 11
-31 8 -5 10 11 7 55 -2 33 -1 61 3 61 10 0 19 -55 19 -117 l0 -54 50 -31 c28
-17 50 -37 50 -44 0 -18 -3 -18 -48 6 -31 17 -37 18 -40 5 -7 -30 -48 -10
-110 53 -23 24 -32 43 -32 66 0 36 -15 56 -43 56 -17 0 -19 5 -14 37 4 20 2
42 -4 49 -15 18 17 63 50 70 45 10 69 22 81 43 8 17 7 24 -9 40 -16 16 -17 22
-6 31 10 9 11 18 4 37 -11 30 -13 28 43 58 52 29 103 34 94 9z m83 -73 c7 -12
10 -26 6 -29 -11 -11 -65 56 -65 81 0 22 0 22 24 -4 13 -14 29 -35 35 -48z
m-10432 -7 c-3 -3 -12 -4 -19 -1 -8 3 -5 6 6 6 11 1 17 -2 13 -5z m583 -70 c0
-8 -4 -14 -10 -14 -5 0 -10 9 -10 21 0 11 5 17 10 14 6 -3 10 -13 10 -21z
m9984 -20 c9 -3 16 -13 16 -21 0 -11 -5 -13 -17 -8 -10 4 -39 10 -65 12 -27 3
-48 9 -48 14 0 10 90 12 114 3z m-85 -68 c19 -20 22 -32 17 -59 -7 -38 -40
-75 -51 -58 -3 6 0 28 7 48 10 29 10 37 1 40 -14 5 -18 53 -5 53 5 0 19 -11
31 -24z m-429 -70 c0 -14 -5 -28 -10 -31 -13 -8 -24 20 -16 40 9 24 26 17 26
-9z m-9265 -56 c3 -5 1 -10 -4 -10 -6 0 -11 5 -11 10 0 6 2 10 4 10 3 0 8 -4
11 -10z m9203 -25 c-2 -17 -8 -25 -20 -25 -23 0 -23 9 0 31 22 23 22 23 20 -6z
m-4542 -32 c-10 -10 -19 5 -10 18 6 11 8 11 12 0 2 -7 1 -15 -2 -18z m-61
-203 c-3 -5 -10 -10 -16 -10 -5 0 -9 5 -9 10 0 6 7 10 16 10 8 0 12 -4 9 -10z
m195 -80 c0 -5 -5 -10 -11 -10 -5 0 -7 5 -4 10 3 6 8 10 11 10 2 0 4 -4 4 -10z
m-60 -30 c0 -5 -7 -10 -16 -10 -8 0 -12 5 -9 10 3 6 10 10 16 10 5 0 9 -4 9
-10z m-3314 -577 c-10 -10 -19 5 -10 18 6 11 8 11 12 0 2 -7 1 -15 -2 -18z"/>
<path d="M12120 1296 c0 -25 5 -46 10 -46 6 0 10 18 10 39 0 22 -4 43 -10 46
-6 4 -10 -12 -10 -39z"/>
<path d="M12170 1300 c0 -40 16 -70 37 -70 15 0 15 2 0 18 -10 10 -17 30 -17
45 0 14 -4 29 -10 32 -6 4 -10 -7 -10 -25z"/>
<path d="M12044 1119 c-19 -21 -19 -21 6 -18 14 2 26 12 28 22 5 23 -11 22
-34 -4z"/>
<path d="M12046 1005 c3 -33 8 -62 10 -64 9 -10 3 96 -7 109 -7 11 -8 -3 -3
-45z"/>
<path d="M8135 12680 c-3 -5 -1 -10 4 -10 6 0 11 5 11 10 0 6 -2 10 -4 10 -3
0 -8 -4 -11 -10z"/>
<path d="M9310 12668 c0 -19 2 -20 10 -8 13 19 13 30 0 30 -5 0 -10 -10 -10
-22z"/>
<path d="M7901 12604 c0 -11 3 -14 6 -6 3 7 2 16 -1 19 -3 4 -6 -2 -5 -13z"/>
<path d="M7635 12570 c3 -5 8 -10 11 -10 2 0 4 5 4 10 0 6 -5 10 -11 10 -5 0
-7 -4 -4 -10z"/>
<path d="M9635 12570 c3 -5 11 -10 16 -10 6 0 7 5 4 10 -3 6 -11 10 -16 10 -6
0 -7 -4 -4 -10z"/>
<path d="M5998 10344 c-5 -4 -8 -16 -8 -28 0 -14 3 -17 11 -9 6 6 9 19 7 28
-1 9 -6 13 -10 9z"/>
<path d="M7370 10188 c-19 -9 -57 -17 -84 -18 -47 0 -49 -1 -30 -16 15 -12 16
-16 5 -21 -7 -3 -22 -14 -32 -24 -11 -11 -23 -19 -28 -19 -12 0 -35 -29 -29
-36 3 -3 23 -7 44 -10 22 -3 53 -12 71 -20 18 -8 49 -15 70 -16 42 -1 83 -23
83 -44 0 -18 -22 -18 -134 1 -50 8 -145 22 -211 31 -66 10 -145 21 -175 25
-30 5 -106 12 -168 15 l-113 7 -53 -56 c-29 -30 -56 -63 -60 -72 -3 -10 -15
-15 -28 -13 -25 3 -28 -1 -28 -34 0 -19 2 -20 11 -8 9 12 10 12 5 -3 -3 -10
-6 -21 -6 -23 0 -2 -8 -4 -18 -4 -10 0 -23 -5 -29 -11 -9 -9 -13 -2 -19 26 -6
35 -4 40 32 70 33 28 37 35 25 49 -7 9 -19 16 -27 16 -7 0 -17 7 -22 17 -16
28 -65 -15 -79 -70 -15 -56 -42 -72 -36 -21 3 33 2 34 -17 24 -12 -6 -42 -32
-68 -57 l-47 -45 25 -10 c14 -5 40 -8 58 -6 48 6 57 -17 42 -101 -6 -36 -14
-74 -17 -83 -7 -29 -49 -21 -92 17 -79 71 -191 89 -191 30 0 -1 16 -5 35 -8
19 -3 42 -13 51 -21 8 -9 25 -18 37 -20 12 -2 47 -10 78 -16 30 -7 64 -11 74
-9 23 5 65 106 65 156 0 18 5 33 10 33 6 0 10 9 10 20 0 23 22 27 39 6 19 -22
9 -69 -21 -99 -15 -15 -28 -31 -28 -35 0 -11 36 -28 72 -36 23 -5 26 -3 21 10
-5 14 -2 16 15 12 11 -3 22 -2 24 4 2 5 25 6 56 2 45 -6 54 -11 67 -37 18 -37
19 -38 0 -31 -17 7 -21 -11 -5 -21 8 -5 8 -11 1 -19 -17 -20 -2 -26 42 -19 34
5 39 4 34 -9 -3 -9 0 -21 6 -27 6 -6 7 -11 1 -11 -5 0 -15 5 -22 12 -7 7 -12
8 -12 4 0 -15 133 -136 149 -136 9 0 35 11 58 24 23 14 53 28 65 31 13 4 37
18 55 31 38 29 152 49 221 39 26 -4 62 -8 79 -9 37 -1 45 -16 17 -31 -11 -6
-18 -18 -16 -28 5 -23 -25 -46 -50 -39 -10 2 -24 -2 -31 -11 -8 -11 -34 -17
-87 -20 -95 -5 -134 -12 -172 -32 -17 -8 -42 -15 -55 -15 -20 0 -22 -3 -13
-19 16 -30 12 -44 -10 -38 -16 4 -18 2 -11 -12 16 -29 50 -54 66 -48 8 4 15 2
15 -3 0 -6 9 -10 20 -10 22 0 100 -47 100 -61 0 -4 19 -27 43 -51 105 -105
258 -301 245 -314 -3 -2 -11 2 -18 11 -7 8 -19 15 -26 15 -8 0 -23 9 -34 20
-16 16 -20 17 -20 5 0 -17 -16 -20 -25 -4 -4 5 -18 14 -31 19 -13 5 -24 16
-24 25 0 8 -5 15 -11 15 -7 0 -9 -10 -4 -27 7 -29 21 -43 43 -43 6 0 12 -4 12
-10 0 -5 7 -10 15 -10 9 0 18 -7 21 -15 4 -8 12 -15 20 -15 8 0 14 -5 14 -11
0 -6 9 -9 19 -6 15 3 18 1 14 -12 -5 -13 -3 -14 7 -4 10 9 18 8 38 -7 14 -11
34 -20 45 -20 11 0 31 -9 43 -21 69 -65 332 12 440 129 43 47 54 54 77 49 14
-4 27 -14 29 -22 2 -10 8 -12 17 -6 12 8 12 12 -2 26 -19 19 -22 34 -7 36 6 1
15 3 20 4 6 1 16 3 24 4 8 0 17 8 20 17 3 8 2 12 -3 9 -5 -3 -11 5 -13 17 l-3
23 -25 -26 c-14 -14 -35 -31 -48 -38 -19 -10 -23 -9 -29 5 -10 26 10 69 33 72
12 2 31 14 44 26 19 21 20 27 8 46 -10 18 -10 24 0 27 6 3 12 15 12 27 0 36
51 106 77 106 17 0 23 6 23 23 1 20 2 20 13 5 7 -9 17 -24 23 -34 10 -17 13
-16 37 10 15 16 27 40 27 52 0 15 6 24 15 24 28 0 15 21 -22 37 -52 21 -163
27 -163 7 0 -10 14 -14 54 -14 34 0 58 -5 65 -14 18 -22 0 -26 -65 -16 -108
16 -119 22 -122 62 -4 47 19 71 54 58 28 -11 182 -16 191 -6 11 11 -27 129
-65 201 -39 76 -99 165 -119 178 -7 4 -25 20 -39 34 -24 24 -25 28 -10 38 9 7
16 17 16 23 0 18 22 26 31 11 6 -10 9 -8 9 9 0 12 -5 21 -11 20 -6 -2 -14 3
-17 11 -3 9 0 12 10 8 33 -12 -18 90 -74 147 -15 17 -28 33 -28 37 0 15 -87
52 -119 50 -18 -1 -39 4 -47 10 -9 7 -31 9 -60 5 -27 -3 -54 -1 -66 5 -24 13
-157 19 -164 7 -8 -13 -24 -9 -24 7 0 19 -44 16 -90 -7z m248 -80 c9 -9 12 -9
12 0 0 18 37 14 44 -4 5 -13 2 -15 -15 -11 -11 3 -34 1 -50 -5 -35 -12 -47 -5
-29 17 15 18 22 19 38 3z m-193 -8 c3 -5 -1 -10 -9 -10 -8 0 -18 5 -21 10 -3
6 1 10 9 10 8 0 18 -4 21 -10z m313 -26 c-4 -3 -12 5 -18 18 -12 22 -12 22 6
6 10 -10 15 -20 12 -24z m86 -17 c6 -15 7 -30 3 -34 -10 -9 -36 27 -37 50 0
27 23 15 34 -16z m96 -73 c0 -13 5 -24 10 -24 6 0 10 -7 10 -15 0 -22 -12 -17
-38 16 -19 24 -22 32 -12 44 16 19 30 10 30 -21z m-438 11 c0 -5 -5 -11 -11
-13 -6 -2 -11 4 -11 13 0 9 5 15 11 13 6 -2 11 -8 11 -13z m-644 -81 c40 -11
22 -53 -32 -74 -17 -6 -35 -6 -51 0 -22 8 -24 13 -15 30 6 11 23 26 38 34 32
18 30 17 60 10z m271 -70 c21 -4 31 -12 31 -25 0 -23 19 -34 33 -20 15 15 27
14 27 -4 0 -8 5 -15 10 -15 6 0 10 5 10 10 0 14 32 12 53 -4 9 -7 17 -25 17
-39 0 -14 6 -27 13 -30 9 -3 9 -9 0 -25 -7 -12 -10 -28 -7 -36 3 -8 1 -17 -5
-21 -6 -3 -11 0 -11 8 0 18 -26 41 -34 29 -3 -5 10 -27 29 -48 19 -21 35 -42
35 -47 0 -14 -44 -25 -145 -36 -55 -6 -145 -20 -199 -29 -77 -14 -109 -16
-140 -8 -52 13 -50 11 -35 34 8 12 19 18 28 14 14 -5 14 -3 0 14 -9 10 -19 26
-22 34 -3 9 -6 6 -6 -9 -1 -19 -4 -21 -16 -11 -8 6 -19 9 -24 6 -5 -4 -12 -2
-16 4 -6 9 0 18 33 55 10 12 9 18 -8 35 -12 12 -23 20 -24 18 -1 -1 -7 -16
-14 -31 -12 -28 -32 -29 -32 -1 0 8 -4 14 -10 14 -5 0 -10 -9 -10 -20 0 -11
-4 -20 -9 -20 -20 0 -41 13 -41 25 0 8 -11 27 -25 43 -14 17 -25 37 -25 45 0
20 20 33 29 18 5 -7 17 -8 39 -2 17 5 40 7 52 4 15 -4 20 -1 20 13 0 17 1 16
14 -2 8 -11 18 -15 23 -10 4 5 2 11 -4 13 -45 16 44 40 181 48 43 2 81 7 84
10 7 7 62 6 101 -1z m-371 -356 c-3 -7 -11 -13 -18 -13 -7 0 -15 6 -17 13 -3
7 4 12 17 12 13 0 20 -5 18 -12z m1132 -672 c0 -2 -7 -7 -16 -10 -8 -3 -12 -2
-9 4 6 10 25 14 25 6z"/>
<path d="M6625 9720 c4 -6 11 -8 16 -5 14 9 11 15 -7 15 -8 0 -12 -5 -9 -10z"/>
<path d="M6670 9700 c0 -5 5 -10 10 -10 6 0 10 5 10 10 0 6 -4 10 -10 10 -5 0
-10 -4 -10 -10z"/>
<path d="M5918 10140 c-7 -24 -3 -38 8 -28 3 4 4 17 2 30 l-3 23 -7 -25z"/>
<path d="M5251 10114 c0 -11 3 -14 6 -6 3 7 2 16 -1 19 -3 4 -6 -2 -5 -13z"/>
<path d="M7178 10123 c7 -3 16 -2 19 1 4 3 -2 6 -13 5 -11 0 -14 -3 -6 -6z"/>
<path d="M5847 9863 c-4 -3 -7 -11 -7 -17 0 -6 5 -5 12 2 6 6 9 14 7 17 -3 3
-9 2 -12 -2z"/>
<path d="M6370 9759 c0 -5 5 -7 10 -4 6 3 10 8 10 11 0 2 -4 4 -10 4 -5 0 -10
-5 -10 -11z"/>
<path d="M5937 9633 c-21 -20 12 -70 38 -59 8 3 15 14 15 24 0 31 -35 54 -53
35z"/>
<path d="M5819 9563 c-8 -10 -26 -25 -39 -35 -30 -19 -20 -35 25 -40 29 -3 30
-2 32 45 1 26 1 47 0 47 -2 0 -9 -8 -18 -17z"/>
<path d="M5760 9450 c0 -5 12 -10 28 -9 24 0 25 1 7 9 -27 12 -35 12 -35 0z"/>
<path d="M6710 9376 c0 -2 7 -7 16 -10 8 -3 12 -2 9 4 -6 10 -25 14 -25 6z"/>
<path d="M6572 9232 c-3 -10 -7 -11 -12 -2 -6 9 -7 -43 -1 -73 3 -16 67 -47
98 -47 17 0 35 -5 38 -10 12 -19 84 -60 105 -60 23 0 24 7 10 45 -9 24 -8 26
12 19 13 -3 31 -13 40 -22 14 -12 21 -12 33 -2 13 11 11 18 -17 56 -41 58 -82
82 -149 89 -9 1 -29 6 -45 10 -47 13 -106 11 -112 -3z"/>
<path d="M5715 9137 c-4 -10 -5 -21 -1 -24 10 -10 18 4 13 24 -4 17 -4 17 -12
0z"/>
<path d="M5687 9049 c-21 -12 -13 -29 14 -29 12 0 19 7 19 20 0 22 -7 24 -33
9z"/>
<path d="M8079 8993 c-26 -28 -28 -33 -10 -22 22 14 60 59 49 59 -2 0 -20 -17
-39 -37z"/>
<path d="M8686 8905 c4 -8 10 -15 15 -15 5 0 9 7 9 15 0 8 -7 15 -15 15 -9 0
-12 -6 -9 -15z"/>
<path d="M11300 8752 c0 -10 6 -27 14 -37 13 -18 15 -18 40 -2 32 21 34 43 4
51 -40 10 -58 7 -58 -12z"/>
<path d="M5035 8363 c-57 -57 -84 -159 -71 -267 l7 -56 59 60 c32 33 65 60 72
60 18 0 44 32 63 77 9 21 25 45 36 53 l20 16 -20 26 c-24 30 -79 58 -114 58
-13 0 -37 -12 -52 -27z"/>
<path d="M5635 8360 c-3 -5 -1 -10 4 -10 6 0 11 5 11 10 0 6 -2 10 -4 10 -3 0
-8 -4 -11 -10z"/>
<path d="M5620 8265 c0 -8 5 -15 10 -15 6 0 10 7 10 15 0 8 -4 15 -10 15 -5 0
-10 -7 -10 -15z"/>
<path d="M5613 8208 c-14 -17 -4 -90 11 -85 13 4 21 97 8 97 -5 0 -14 -6 -19
-12z"/>
<path d="M7952 8189 c-29 -16 -56 -37 -59 -44 -3 -8 -11 -15 -17 -15 -7 0 -30
-25 -52 -55 -21 -31 -49 -68 -61 -84 -55 -70 -26 -121 72 -129 45 -4 64 0 110
23 31 15 63 38 72 51 15 24 20 25 107 22 l91 -3 9 37 c25 99 -82 227 -189 228
-16 0 -54 -14 -83 -31z"/>
<path d="M5504 7872 c-5 -4 -31 -34 -57 -68 -51 -66 -59 -100 -28 -129 19 -17
21 -16 40 16 12 19 21 38 21 42 0 5 11 33 25 63 24 52 24 93 -1 76z"/>
<path d="M5665 7630 c3 -5 8 -10 11 -10 2 0 4 5 4 10 0 6 -5 10 -11 10 -5 0
-7 -4 -4 -10z"/>
<path d="M8183 7625 c0 -8 -8 -29 -17 -47 -24 -45 -9 -81 42 -107 35 -18 41
-18 61 -5 26 18 27 53 4 97 -15 26 -23 31 -45 29 -24 -3 -28 0 -28 22 0 14 -4
26 -8 26 -5 0 -9 -7 -9 -15z"/>
<path d="M8236 7625 c-3 -8 -1 -15 4 -15 6 0 10 7 10 15 0 8 -2 15 -4 15 -2 0
-6 -7 -10 -15z"/>
<path d="M8173 7285 c-17 -19 -16 -25 2 -25 8 0 15 9 15 20 0 23 -1 24 -17 5z"/>
<path d="M7312 7225 c0 -16 2 -22 5 -12 2 9 2 23 0 30 -3 6 -5 -1 -5 -18z"/>
<path d="M5900 7142 c0 -4 5 -13 12 -20 16 -16 28 -15 28 2 0 8 -7 17 -16 20
-21 8 -24 8 -24 -2z"/>
<path d="M5924 7017 c-8 -21 2 -35 16 -21 5 5 6 15 0 24 -8 12 -10 12 -16 -3z"/>
<path d="M6985 6800 c-3 -5 -2 -10 4 -10 5 0 13 5 16 10 3 6 2 10 -4 10 -5 0
-13 -4 -16 -10z"/>
<path d="M5632 6440 c0 -14 2 -19 5 -12 2 6 2 18 0 25 -3 6 -5 1 -5 -13z"/>
<path d="M6620 6010 c0 -5 5 -10 10 -10 6 0 10 5 10 10 0 6 -4 10 -10 10 -5 0
-10 -4 -10 -10z"/>
<path d="M6890 5968 c-21 -34 -23 -79 -5 -85 14 -4 37 50 30 69 -4 9 1 18 9
21 20 8 21 27 1 27 -8 0 -24 -15 -35 -32z"/>
<path d="M7045 5860 c20 -22 31 -20 22 5 -4 8 -14 15 -23 15 -16 0 -16 -2 1
-20z"/>
<path d="M6815 5821 c-3 -5 -1 -12 4 -15 5 -3 11 1 15 9 6 16 -9 21 -19 6z"/>
<path d="M7420 5700 c0 -5 5 -10 11 -10 5 0 7 5 4 10 -3 6 -8 10 -11 10 -2 0
-4 -4 -4 -10z"/>
<path d="M10490 5679 c0 -5 5 -7 10 -4 6 3 10 8 10 11 0 2 -4 4 -10 4 -5 0
-10 -5 -10 -11z"/>
<path d="M10451 5494 c0 -11 3 -14 6 -6 3 7 2 16 -1 19 -3 4 -6 -2 -5 -13z"/>
<path d="M5882 5360 c0 -19 2 -27 5 -17 2 9 2 25 0 35 -3 9 -5 1 -5 -18z"/>
<path d="M6820 4410 c0 -5 7 -10 15 -10 8 0 15 5 15 10 0 6 -7 10 -15 10 -8 0
-15 -4 -15 -10z"/>
<path d="M6760 4395 c7 -9 15 -13 17 -11 7 7 -7 26 -19 26 -6 0 -6 -6 2 -15z"/>
<path d="M7320 4365 c-9 -11 -16 -12 -25 -5 -21 18 -28 -7 -8 -30 19 -22 33
-26 33 -8 0 6 7 19 16 29 9 10 11 20 6 23 -5 3 -15 -1 -22 -9z"/>
<path d="M7160 4351 c0 -6 9 -15 20 -21 13 -7 20 -7 20 -1 0 6 -9 15 -20 21
-13 7 -20 7 -20 1z"/>
<path d="M7012 4343 c-18 -7 -4 -23 19 -23 12 0 19 5 17 12 -5 14 -18 18 -36
11z"/>
<path d="M6870 4301 c0 -5 5 -13 10 -16 6 -3 10 -2 10 4 0 5 -4 13 -10 16 -5
3 -10 2 -10 -4z"/>
<path d="M7150 4233 c0 -7 33 -32 43 -33 16 0 5 16 -18 27 -14 6 -25 9 -25 6z"/>
<path d="M7105 4170 c-18 -8 -17 -9 8 -9 15 -1 27 4 27 9 0 12 -8 12 -35 0z"/>
<path d="M7235 3820 c3 -5 14 -10 23 -10 15 0 15 2 2 10 -20 13 -33 13 -25 0z"/>
<path d="M7210 3766 c0 -2 7 -9 15 -16 12 -10 15 -10 15 4 0 9 -7 16 -15 16
-8 0 -15 -2 -15 -4z"/>
<path d="M7320 3665 c0 -8 5 -15 10 -15 6 0 10 7 10 15 0 8 -4 15 -10 15 -5 0
-10 -7 -10 -15z"/>
<path d="M7367 3644 c-8 -8 1 -24 14 -24 5 0 9 7 9 15 0 15 -12 20 -23 9z"/>
<path d="M7290 3569 c0 -11 60 -39 85 -39 9 0 13 5 10 11 -4 6 -13 8 -20 6 -6
-3 -19 3 -28 14 -18 20 -47 26 -47 8z"/>
<path d="M7406 3291 c12 -5 25 -14 29 -20 10 -16 45 -13 45 4 0 8 -6 15 -14
15 -7 0 -29 2 -47 5 -27 5 -30 4 -13 -4z"/>
<path d="M6470 3172 c0 -6 9 -12 20 -15 11 -3 20 -3 20 -1 0 2 -9 8 -20 14
-11 6 -20 7 -20 2z"/>
<path d="M6565 3080 c-3 -5 -1 -10 4 -10 6 0 11 5 11 10 0 6 -2 10 -4 10 -3 0
-8 -4 -11 -10z"/>
<path d="M7380 3041 c0 -6 5 -13 10 -16 6 -3 10 1 10 9 0 9 -4 16 -10 16 -5 0
-10 -4 -10 -9z"/>
<path d="M7295 3010 c3 -5 8 -10 11 -10 2 0 4 5 4 10 0 6 -5 10 -11 10 -5 0
-7 -4 -4 -10z"/>
<path d="M7330 2975 c0 -10 7 -15 18 -13 21 4 19 22 -2 26 -10 2 -16 -3 -16
-13z"/>
<path d="M7010 2920 c0 -5 5 -10 11 -10 5 0 7 5 4 10 -3 6 -8 10 -11 10 -2 0
-4 -4 -4 -10z"/>
<path d="M6905 2900 c3 -5 11 -10 16 -10 6 0 7 5 4 10 -3 6 -11 10 -16 10 -6
0 -7 -4 -4 -10z"/>
<path d="M7069 2895 c42 -19 47 -19 31 0 -7 8 -24 15 -39 15 -25 -1 -25 -1 8
-15z"/>
</g>
</svg>
